<svg xmlns="http://www.w3.org/2000/svg" viewBox="0 0 247.86 68.16"><defs><style>.cls-1,.cls-3{isolation:isolate;font-size:57.51px;font-family:Arial-Black, Arial;font-weight:800;}.cls-1{fill:#1fff44;}.cls-2{letter-spacing:-0.08em;}.cls-3{fill:none;}.cls-3,.cls-6,.cls-7{stroke:#000;stroke-miterlimit:10;}.cls-4{letter-spacing:-0.02em;}.cls-5{letter-spacing:-0.01em;}.cls-6{fill:#f7f9f7;}.cls-7{fill:#61ff61;}</style></defs><g id="Layer_2" data-name="Layer 2"><g id="Layer_1-2" data-name="Layer 1"><text class="cls-1" transform="translate(45.88 50.52) scale(0.39 1)"><tspan class="cls-2">P</tspan><tspan x="36.64" y="0">AK</tspan></text><text class="cls-3" transform="translate(45.93 49.84) scale(0.39 1)"><tspan class="cls-2">P</tspan><tspan x="36.64" y="0">AK</tspan></text><text class="cls-3" transform="translate(98.23 49.84) scale(0.37 1)">P<tspan class="cls-4" x="41.53" y="0">R</tspan><tspan x="85.28" y="0">OPE</tspan><tspan class="cls-5" x="216.24" y="0">R</tspan><tspan x="260.46" y="0">TIES</tspan></text><rect x="12.53" y="8.51" width="19.42" height="41.66"/><rect x="33.47" y="15.86" width="5" height="34.31"/><rect x="1.09" y="23.83" width="9.94" height="26.35"/><rect class="cls-6" x="14.48" y="10.35" width="5.51" height="5.51"/><rect class="cls-6" x="34.22" y="16.82" width="3.5" height="3.5"/><rect class="cls-6" x="34.22" y="21.33" width="3.5" height="3.5"/><rect class="cls-6" x="34.22" y="25.84" width="3.5" height="3.5"/><rect class="cls-6" x="34.22" y="30.34" width="3.5" height="3.5"/><rect class="cls-6" x="34.22" y="34.85" width="3.5" height="3.5"/><rect class="cls-6" x="34.22" y="39.36" width="3.5" height="3.5"/><rect class="cls-6" x="1.55" y="24.78" width="3.5" height="3.5"/><rect class="cls-6" x="7.04" y="24.78" width="3.5" height="3.5"/><rect class="cls-6" x="23.98" y="10.35" width="5.51" height="5.51"/><rect class="cls-6" x="14.74" y="17.56" width="5.51" height="5.51"/><rect class="cls-6" x="24.23" y="17.56" width="5.51" height="5.51"/><rect class="cls-6" x="14.99" y="24.78" width="5.51" height="5.51"/><rect class="cls-6" x="24.49" y="24.78" width="5.51" height="5.51"/><rect class="cls-6" x="15.25" y="32" width="5.51" height="5.51"/><rect class="cls-6" x="24.75" y="32" width="5.51" height="5.51"/><rect class="cls-6" x="15.51" y="39.22" width="5.51" height="5.51"/><rect class="cls-6" x="25" y="39.22" width="5.51" height="5.51"/><rect class="cls-6" x="1.55" y="29.69" width="3.5" height="3.5"/><rect class="cls-6" x="1.55" y="34.61" width="3.5" height="3.5"/><rect class="cls-6" x="7.04" y="34.85" width="3.5" height="3.5"/><rect class="cls-6" x="1.56" y="40.01" width="3.5" height="3.5"/><rect class="cls-6" x="7.06" y="40.26" width="3.5" height="3.5"/><rect class="cls-6" x="1.58" y="45.42" width="3.5" height="3.5"/><rect class="cls-6" x="7.07" y="45.67" width="3.5" height="3.5"/><rect class="cls-6" x="7.04" y="29.69" width="3.5" height="3.5"/><polygon class="cls-7" points="11 18.77 7.45 18.32 5.06 20.98 4.4 17.46 1.13 16.02 4.27 14.3 4.63 10.74 7.23 13.2 10.73 12.45 9.2 15.68 11 18.77"/></g></g></svg>