<svg xmlns="http://www.w3.org/2000/svg" viewBox="0 0 260.62 46.02"><defs><style>.cls-1,.cls-3,.cls-4{isolation:isolate;font-size:35.12px;font-family:Arial-Black, Arial;font-weight:800;}.cls-1{fill:#1fff44;}.cls-1,.cls-3{letter-spacing:-0.08em;}.cls-2{letter-spacing:0em;}.cls-3,.cls-4{fill:none;}.cls-3,.cls-4,.cls-8,.cls-9{stroke:#000;stroke-miterlimit:10;}.cls-5{letter-spacing:-0.02em;}.cls-6{letter-spacing:-0.01em;}.cls-7{letter-spacing:0em;}.cls-8{fill:#f7f9f7;}.cls-9{fill:#61ff61;}</style></defs><g id="Layer_2" data-name="Layer 2"><g id="Layer_1-2" data-name="Layer 1"><text class="cls-1" transform="translate(45.88 35.18) scale(0.68 1)">P<tspan class="cls-2" x="22.38" y="0">AK</tspan></text><text class="cls-3" transform="translate(45.94 34.75) scale(0.68 1)">P<tspan class="cls-2" x="22.38" y="0">AK</tspan></text><text class="cls-4" transform="translate(101.55 34.75) scale(0.64 1)">P<tspan class="cls-5" x="25.36" y="0">R</tspan><tspan x="52.08" y="0">OPE</tspan><tspan class="cls-6" x="132.06" y="0">R</tspan><tspan class="cls-7" x="159.07" y="0">TIES</tspan></text><rect x="12.53" width="19.42" height="41.66"/><rect x="33.47" y="7.35" width="5" height="34.31"/><rect x="1.09" y="15.32" width="9.94" height="26.35"/><rect class="cls-8" x="14.48" y="1.84" width="5.51" height="5.51"/><rect class="cls-8" x="34.22" y="8.31" width="3.5" height="3.5"/><rect class="cls-8" x="34.22" y="12.82" width="3.5" height="3.5"/><rect class="cls-8" x="34.22" y="17.33" width="3.5" height="3.5"/><rect class="cls-8" x="34.22" y="21.84" width="3.5" height="3.5"/><rect class="cls-8" x="34.22" y="26.35" width="3.5" height="3.5"/><rect class="cls-8" x="34.22" y="30.86" width="3.5" height="3.5"/><rect class="cls-8" x="1.55" y="16.27" width="3.5" height="3.5"/><rect class="cls-8" x="7.04" y="16.27" width="3.5" height="3.5"/><rect class="cls-8" x="23.98" y="1.84" width="5.51" height="5.51"/><rect class="cls-8" x="14.74" y="9.06" width="5.51" height="5.51"/><rect class="cls-8" x="24.23" y="9.06" width="5.51" height="5.51"/><rect class="cls-8" x="14.99" y="16.27" width="5.51" height="5.51"/><rect class="cls-8" x="24.49" y="16.27" width="5.51" height="5.51"/><rect class="cls-8" x="15.25" y="23.49" width="5.51" height="5.51"/><rect class="cls-8" x="24.75" y="23.49" width="5.51" height="5.51"/><rect class="cls-8" x="15.51" y="30.71" width="5.51" height="5.51"/><rect class="cls-8" x="25" y="30.71" width="5.51" height="5.51"/><rect class="cls-8" x="1.55" y="21.19" width="3.5" height="3.5"/><rect class="cls-8" x="1.55" y="26.1" width="3.5" height="3.5"/><rect class="cls-8" x="7.04" y="26.35" width="3.5" height="3.5"/><rect class="cls-8" x="1.56" y="31.51" width="3.5" height="3.5"/><rect class="cls-8" x="7.06" y="31.75" width="3.5" height="3.5"/><rect class="cls-8" x="1.58" y="36.91" width="3.5" height="3.5"/><rect class="cls-8" x="7.07" y="37.16" width="3.5" height="3.5"/><rect class="cls-8" x="7.04" y="21.19" width="3.5" height="3.5"/><polygon class="cls-9" points="11 10.26 7.45 9.81 5.06 12.47 4.4 8.96 1.13 7.51 4.27 5.79 4.63 2.23 7.23 4.69 10.73 3.94 9.2 7.17 11 10.26"/></g></g></svg>