<svg xmlns="http://www.w3.org/2000/svg" xmlns:xlink="http://www.w3.org/1999/xlink" viewBox="0 0 283.13 85.98"><defs><style>.cls-1,.cls-33{fill:none;}.cls-2{clip-path:url(#clip-path);}.cls-3{clip-path:url(#clip-path-2);}.cls-4{clip-path:url(#clip-path-3);}.cls-5{clip-path:url(#clip-path-4);}.cls-6{clip-path:url(#clip-path-5);}.cls-7{clip-path:url(#clip-path-6);}.cls-8{clip-path:url(#clip-path-7);}.cls-9{clip-path:url(#clip-path-8);}.cls-10{clip-path:url(#clip-path-9);}.cls-11{clip-path:url(#clip-path-10);}.cls-12{clip-path:url(#clip-path-11);}.cls-13{fill:#fff;}.cls-14{clip-path:url(#clip-path-12);}.cls-15{clip-path:url(#clip-path-13);}.cls-16{clip-path:url(#clip-path-14);}.cls-17{clip-path:url(#clip-path-15);}.cls-18{clip-path:url(#clip-path-16);}.cls-19{clip-path:url(#clip-path-17);}.cls-20{clip-path:url(#clip-path-18);}.cls-21{clip-path:url(#clip-path-19);}.cls-22{clip-path:url(#clip-path-20);}.cls-23{clip-path:url(#clip-path-21);}.cls-24{clip-path:url(#clip-path-22);}.cls-25{clip-path:url(#clip-path-23);}.cls-26{clip-path:url(#clip-path-24);}.cls-27{clip-path:url(#clip-path-25);}.cls-28{clip-path:url(#clip-path-26);}.cls-29{clip-path:url(#clip-path-27);}.cls-30{clip-path:url(#clip-path-28);}.cls-31,.cls-32,.cls-33,.cls-34{isolation:isolate;font-size:27px;font-family:ShowcardGothic-Reg, Showcard Gothic;}.cls-32{fill:#1fff44;}.cls-33{stroke:#000;stroke-miterlimit:10;}.cls-34{fill:#f9f9f9;}</style><clipPath id="clip-path"><rect class="cls-1" x="130.66" y="15.03" width="54.36" height="35.58"/></clipPath><clipPath id="clip-path-2"><rect class="cls-1" x="150.63" y="15.03" width="68.82" height="35.58"/></clipPath><clipPath id="clip-path-3"><polygon class="cls-1" points="185.03 15.03 219.42 50.62 150.63 50.62 185.03 15.03"/></clipPath><clipPath id="clip-path-4"><rect class="cls-1" x="101.71" width="97.93" height="50.62"/></clipPath><clipPath id="clip-path-5"><polygon class="cls-1" points="150.63 0 199.55 50.62 101.71 50.62 150.63 0"/></clipPath><clipPath id="clip-path-6"><rect class="cls-1" x="50.49" y="5.98" width="14.71" height="33.33"/></clipPath><clipPath id="clip-path-7"><rect class="cls-1" x="35.85" width="97.99" height="50.62"/></clipPath><clipPath id="clip-path-8"><polygon class="cls-1" points="84.77 0 133.7 50.62 35.85 50.62 84.77 0"/></clipPath><clipPath id="clip-path-9"><rect class="cls-1" x="84.77" width="65.85" height="50.62"/></clipPath><clipPath id="clip-path-10"><rect class="cls-1" x="150.63" y="19.29" width="64.77" height="33.46"/></clipPath><clipPath id="clip-path-11"><polygon class="cls-1" points="182.97 19.29 215.31 52.75 150.63 52.75 182.97 19.29"/></clipPath><clipPath id="clip-path-12"><rect class="cls-1" x="133.19" y="10.13" width="52.45" height="6.22"/></clipPath><clipPath id="clip-path-13"><polygon class="cls-1" points="133.81 14.35 184.65 10.71 185 14.59 134.17 18.23 133.81 14.35"/></clipPath><clipPath id="clip-path-14"><polygon class="cls-1" points="134 16.28 184.65 10.71 185 14.59 134 16.28"/></clipPath><clipPath id="clip-path-15"><rect class="cls-1" x="41.04" y="4.25" width="91.26" height="47.14"/></clipPath><clipPath id="clip-path-16"><polygon class="cls-1" points="86.59 4.25 132.15 51.39 41.04 51.39 86.59 4.25"/></clipPath><clipPath id="clip-path-17"><rect class="cls-1" x="78.91" y="35" width="7.04" height="5.94"/></clipPath><clipPath id="clip-path-18"><rect class="cls-1" x="176.69" y="38.61" width="5.74" height="4.85"/></clipPath><clipPath id="clip-path-19"><rect class="cls-1" x="78.91" y="27.48" width="7.04" height="5.94"/></clipPath><clipPath id="clip-path-20"><rect class="cls-1" x="176.69" y="32.47" width="5.74" height="4.85"/></clipPath><clipPath id="clip-path-21"><rect class="cls-1" x="87.24" y="35" width="7.05" height="5.94"/></clipPath><clipPath id="clip-path-22"><rect class="cls-1" x="183.5" y="38.61" width="5.74" height="4.85"/></clipPath><clipPath id="clip-path-23"><rect class="cls-1" x="87.24" y="27.48" width="7.05" height="5.94"/></clipPath><clipPath id="clip-path-24"><rect class="cls-1" x="183.5" y="32.47" width="5.74" height="4.85"/></clipPath><clipPath id="clip-path-25"><rect class="cls-1" x="8.99" y="44.79" width="236.31" height="25.14"/></clipPath><clipPath id="clip-path-26"><ellipse class="cls-1" cx="127.13" cy="57.36" rx="118.14" ry="12.57"/></clipPath><clipPath id="clip-path-27"><rect class="cls-1" x="18.01" y="48.48" width="265.23" height="25.14"/></clipPath><clipPath id="clip-path-28"><ellipse class="cls-1" cx="150.58" cy="61.05" rx="132.57" ry="12.57"/></clipPath></defs><g id="Layer_2" data-name="Layer 2"><g id="Layer_1-2" data-name="Layer 1"><g class="cls-2"><path d="M130.66,15H185V50.62H130.66Z"/></g><g class="cls-3"><g class="cls-4"><path d="M150.61,15h68.73V50.62H150.61Z"/></g></g><g class="cls-5"><g class="cls-6"><path d="M101.71,0h97.76V50.62H101.71Z"/></g></g><g class="cls-7"><path d="M50.49,6H65.2V39.33H50.49Z"/></g><g class="cls-8"><g class="cls-9"><path d="M35.85,0h97.77V50.62H35.85Z"/></g></g><g class="cls-10"><path d="M84.77,0h65.78V50.62H84.77Z"/></g><g class="cls-11"><g class="cls-12"><path class="cls-13" d="M150.61,19.29H215.3V52.74H150.61Z"/></g></g><g class="cls-14"><g class="cls-15"><g class="cls-16"><path class="cls-13" d="M134.17,18.22l-.35-3.89,50.82-3.63.35,3.89Z"/></g></g></g><g class="cls-17"><g class="cls-18"><path class="cls-13" d="M41,4.25h91V51.39H41Z"/></g></g><g class="cls-19"><path d="M78.93,35h7V41h-7Z"/></g><g class="cls-20"><path d="M176.69,38.61h5.75v4.85h-5.75Z"/></g><g class="cls-21"><path d="M78.93,27.48h7v6h-7Z"/></g><g class="cls-22"><path d="M176.69,32.47h5.75v4.87h-5.75Z"/></g><g class="cls-23"><path d="M87.24,35h7V41h-7Z"/></g><g class="cls-24"><path d="M183.5,38.61h5.74v4.85H183.5Z"/></g><g class="cls-25"><path d="M87.24,27.48h7v6h-7Z"/></g><g class="cls-26"><path d="M183.5,32.47h5.74v4.87H183.5Z"/></g><g class="cls-27"><g class="cls-28"><path d="M9,44.79H245.3V69.94H9Z"/></g></g><g class="cls-29"><g class="cls-30"><path class="cls-13" d="M18,48.48H283.13V73.62H18Z"/></g></g><text class="cls-31" transform="translate(63.94 80.5) scale(0.99 1)">Real</text><text class="cls-31" transform="translate(145.37 78.64) scale(0.97 1)">E</text><text class="cls-32" transform="translate(0.5 79.39) scale(0.97 1)">Pak</text><text class="cls-33" transform="translate(0.5 79.39) scale(0.97 1)">Pak</text><text class="cls-34" transform="translate(164.99 78.64) scale(0.99 1)">stat</text><text class="cls-33" transform="translate(164.99 78.64) scale(0.99 1)">stat</text><text class="cls-31" transform="translate(234.9 78.64) scale(0.97 1)">E</text></g></g></svg>