<svg xmlns="http://www.w3.org/2000/svg" xmlns:xlink="http://www.w3.org/1999/xlink" viewBox="0 0 455.11 67.81"><defs><style>.cls-1{fill:none;}.cls-2{clip-path:url(#clip-path);}.cls-3{clip-path:url(#clip-path-2);}.cls-4{clip-path:url(#clip-path-3);}.cls-5{clip-path:url(#clip-path-4);}.cls-6{clip-path:url(#clip-path-5);}.cls-7{clip-path:url(#clip-path-6);}.cls-8{clip-path:url(#clip-path-7);}.cls-9{clip-path:url(#clip-path-8);}.cls-10{clip-path:url(#clip-path-9);}.cls-11{clip-path:url(#clip-path-10);}.cls-12{clip-path:url(#clip-path-11);}.cls-13{fill:#fff;}.cls-14{clip-path:url(#clip-path-12);}.cls-15{clip-path:url(#clip-path-13);}.cls-16{clip-path:url(#clip-path-14);}.cls-17{clip-path:url(#clip-path-15);}.cls-18{clip-path:url(#clip-path-16);}.cls-19{font-size:53.26px;font-family:GoudyStout, Goudy Stout;}</style><clipPath id="clip-path"><rect class="cls-1" x="108.45" y="19.32" width="62.19" height="45.74"/></clipPath><clipPath id="clip-path-2"><rect class="cls-1" x="131.3" y="19.32" width="78.72" height="45.74"/></clipPath><clipPath id="clip-path-3"><polygon class="cls-1" points="170.65 19.32 209.99 65.07 131.3 65.07 170.65 19.32"/></clipPath><clipPath id="clip-path-4"><rect class="cls-1" x="75.33" width="112.02" height="65.07"/></clipPath><clipPath id="clip-path-5"><polygon class="cls-1" points="131.3 0 187.26 65.07 75.33 65.07 131.3 0"/></clipPath><clipPath id="clip-path-6"><rect class="cls-1" x="16.74" y="7.69" width="16.83" height="42.84"/></clipPath><clipPath id="clip-path-7"><rect class="cls-1" width="112.09" height="65.07"/></clipPath><clipPath id="clip-path-8"><polygon class="cls-1" points="55.96 0 111.93 65.07 0 65.07 55.96 0"/></clipPath><clipPath id="clip-path-9"><rect class="cls-1" x="55.96" width="75.33" height="65.07"/></clipPath><clipPath id="clip-path-10"><rect class="cls-1" x="131.3" y="24.8" width="74.09" height="43.01"/></clipPath><clipPath id="clip-path-11"><polygon class="cls-1" points="168.29 24.8 205.28 67.81 131.3 67.81 168.29 24.8"/></clipPath><clipPath id="clip-path-12"><rect class="cls-1" x="111.35" y="13.02" width="60" height="8"/></clipPath><clipPath id="clip-path-13"><rect class="cls-1" x="112.17" y="16.1" width="58.34" height="5" transform="translate(-1.04 11.4) rotate(-4.6)"/></clipPath><clipPath id="clip-path-14"><polygon class="cls-1" points="112.27 20.93 170.21 13.77 170.61 18.75 112.27 20.93"/></clipPath><clipPath id="clip-path-15"><rect class="cls-1" x="5.93" y="5.46" width="104.39" height="60.6"/></clipPath><clipPath id="clip-path-16"><polygon class="cls-1" points="58.04 5.46 110.16 66.06 5.93 66.06 58.04 5.46"/></clipPath></defs><g id="Layer_2" data-name="Layer 2"><g id="Layer_1-2" data-name="Layer 1"><g class="cls-2"><path d="M108.45,19.32h62.2V65.07h-62.2Z"/></g><g class="cls-3"><g class="cls-4"><path d="M131.3,19.32h78.63V65.07H131.3Z"/></g></g><g class="cls-5"><g class="cls-6"><path d="M75.33,0H187.17V65.07H75.33Z"/></g></g><g class="cls-7"><path d="M16.74,7.69H33.57V50.56H16.74Z"/></g><g class="cls-8"><g class="cls-9"><path d="M0,0H111.84V65.07H0Z"/></g></g><g class="cls-10"><path d="M56,0H131.2V65.07H56Z"/></g><g class="cls-11"><g class="cls-12"><path class="cls-13" d="M131.3,24.8h73.92v43H131.3Z"/></g></g><g class="cls-14"><g class="cls-15"><g class="cls-16"><path class="cls-13" d="M112.47,23.42l-.4-5,58.13-4.67.4,5Z"/></g></g></g><g class="cls-17"><g class="cls-18"><path class="cls-13" d="M5.93,5.46H110.08v60.6H5.93Z"/></g></g><text class="cls-19" transform="translate(205.39 46.47) scale(0.35 1)">Real</text><text class="cls-19" transform="translate(315.35 46.47) scale(0.34 1)">Estate </text></g></g></svg>