<svg xmlns="http://www.w3.org/2000/svg" xmlns:xlink="http://www.w3.org/1999/xlink" viewBox="0 0 485.84 94.64"><defs><style>.cls-1{fill:none;}.cls-2{clip-path:url(#clip-path);}.cls-3{clip-path:url(#clip-path-2);}.cls-4{clip-path:url(#clip-path-3);}.cls-5{clip-path:url(#clip-path-4);}.cls-6{clip-path:url(#clip-path-5);}.cls-7{clip-path:url(#clip-path-6);}.cls-8{clip-path:url(#clip-path-7);}.cls-9{clip-path:url(#clip-path-8);}.cls-10{clip-path:url(#clip-path-9);}.cls-11{clip-path:url(#clip-path-10);}.cls-12{clip-path:url(#clip-path-11);}.cls-13{fill:#fff;}.cls-14{clip-path:url(#clip-path-12);}.cls-15{clip-path:url(#clip-path-13);}.cls-16{clip-path:url(#clip-path-14);}.cls-17{clip-path:url(#clip-path-15);}.cls-18{clip-path:url(#clip-path-16);}.cls-19{clip-path:url(#clip-path-17);}.cls-20{clip-path:url(#clip-path-18);}.cls-21{clip-path:url(#clip-path-19);}.cls-22{clip-path:url(#clip-path-20);}.cls-23{clip-path:url(#clip-path-21);}.cls-24{clip-path:url(#clip-path-22);}.cls-25{clip-path:url(#clip-path-23);}.cls-26{clip-path:url(#clip-path-24);}.cls-27{clip-path:url(#clip-path-25);}.cls-28{clip-path:url(#clip-path-26);}.cls-29{clip-path:url(#clip-path-27);}.cls-30{clip-path:url(#clip-path-28);}.cls-31{font-size:53.26px;font-family:GoudyStout, Goudy Stout;}</style><clipPath id="clip-path"><rect class="cls-1" x="139.18" y="19.32" width="62.19" height="45.74"/></clipPath><clipPath id="clip-path-2"><rect class="cls-1" x="162.03" y="19.32" width="78.72" height="45.74"/></clipPath><clipPath id="clip-path-3"><polygon class="cls-1" points="201.38 19.32 240.72 65.07 162.03 65.07 201.38 19.32"/></clipPath><clipPath id="clip-path-4"><rect class="cls-1" x="106.06" width="112.02" height="65.07"/></clipPath><clipPath id="clip-path-5"><polygon class="cls-1" points="162.03 0 217.99 65.07 106.06 65.07 162.03 0"/></clipPath><clipPath id="clip-path-6"><rect class="cls-1" x="47.47" y="7.69" width="16.83" height="42.84"/></clipPath><clipPath id="clip-path-7"><rect class="cls-1" x="30.73" width="112.09" height="65.07"/></clipPath><clipPath id="clip-path-8"><polygon class="cls-1" points="86.69 0 142.66 65.07 30.73 65.07 86.69 0"/></clipPath><clipPath id="clip-path-9"><rect class="cls-1" x="86.69" width="75.33" height="65.07"/></clipPath><clipPath id="clip-path-10"><rect class="cls-1" x="162.03" y="24.8" width="74.09" height="43.01"/></clipPath><clipPath id="clip-path-11"><polygon class="cls-1" points="199.02 24.8 236.01 67.81 162.03 67.81 199.02 24.8"/></clipPath><clipPath id="clip-path-12"><rect class="cls-1" x="142.08" y="13.02" width="60" height="8"/></clipPath><clipPath id="clip-path-13"><rect class="cls-1" x="142.9" y="16.1" width="58.34" height="5" transform="translate(-0.94 13.86) rotate(-4.6)"/></clipPath><clipPath id="clip-path-14"><polygon class="cls-1" points="143 20.93 200.94 13.77 201.34 18.75 143 20.93"/></clipPath><clipPath id="clip-path-15"><rect class="cls-1" x="36.66" y="5.46" width="104.39" height="60.6"/></clipPath><clipPath id="clip-path-16"><polygon class="cls-1" points="88.77 5.46 140.89 66.06 36.66 66.06 88.77 5.46"/></clipPath><clipPath id="clip-path-17"><rect class="cls-1" x="79.98" y="44.99" width="8.05" height="7.63"/></clipPath><clipPath id="clip-path-18"><rect class="cls-1" x="191.84" y="49.64" width="6.57" height="6.23"/></clipPath><clipPath id="clip-path-19"><rect class="cls-1" x="79.98" y="35.32" width="8.05" height="7.64"/></clipPath><clipPath id="clip-path-20"><rect class="cls-1" x="191.84" y="41.74" width="6.57" height="6.23"/></clipPath><clipPath id="clip-path-21"><rect class="cls-1" x="89.51" y="44.99" width="8.06" height="7.63"/></clipPath><clipPath id="clip-path-22"><rect class="cls-1" x="199.63" y="49.64" width="6.57" height="6.23"/></clipPath><clipPath id="clip-path-23"><rect class="cls-1" x="89.51" y="35.32" width="8.06" height="7.64"/></clipPath><clipPath id="clip-path-24"><rect class="cls-1" x="199.63" y="41.74" width="6.57" height="6.23"/></clipPath><clipPath id="clip-path-25"><rect class="cls-1" y="57.58" width="270.32" height="32.32"/></clipPath><clipPath id="clip-path-26"><ellipse class="cls-1" cx="135.14" cy="73.74" rx="135.14" ry="16.16"/></clipPath><clipPath id="clip-path-27"><rect class="cls-1" x="10.32" y="62.32" width="303.41" height="32.32"/></clipPath><clipPath id="clip-path-28"><ellipse class="cls-1" cx="161.97" cy="78.48" rx="151.65" ry="16.16"/></clipPath></defs><g id="Layer_2" data-name="Layer 2"><g id="Layer_1-2" data-name="Layer 1"><g class="cls-2"><path d="M139.18,19.32h62.2V65.07h-62.2Z"/></g><g class="cls-3"><g class="cls-4"><path d="M162,19.32h78.63V65.07H162Z"/></g></g><g class="cls-5"><g class="cls-6"><path d="M106.06,0H217.9V65.07H106.06Z"/></g></g><g class="cls-7"><path d="M47.47,7.69H64.3V50.56H47.47Z"/></g><g class="cls-8"><g class="cls-9"><path d="M30.73,0H142.57V65.07H30.73Z"/></g></g><g class="cls-10"><path d="M86.69,0h75.24V65.07H86.69Z"/></g><g class="cls-11"><g class="cls-12"><path class="cls-13" d="M162,24.8H236v43H162Z"/></g></g><g class="cls-14"><g class="cls-15"><g class="cls-16"><path class="cls-13" d="M143.2,23.42l-.4-5,58.13-4.67.4,5Z"/></g></g></g><g class="cls-17"><g class="cls-18"><path class="cls-13" d="M36.66,5.46H140.81v60.6H36.66Z"/></g></g><g class="cls-19"><path d="M80,45h8v7.64H80Z"/></g><g class="cls-20"><path d="M191.84,49.64h6.57v6.23h-6.57Z"/></g><g class="cls-21"><path d="M80,35.32h8V43H80Z"/></g><g class="cls-22"><path d="M191.84,41.74h6.57V48h-6.57Z"/></g><g class="cls-23"><path d="M89.51,45h8v7.64h-8Z"/></g><g class="cls-24"><path d="M199.63,49.64h6.56v6.23h-6.56Z"/></g><g class="cls-25"><path d="M89.51,35.32h8V43h-8Z"/></g><g class="cls-26"><path d="M199.63,41.74h6.56V48h-6.56Z"/></g><g class="cls-27"><g class="cls-28"><path d="M0,57.58H270.32V89.91H0Z"/></g></g><g class="cls-29"><g class="cls-30"><path class="cls-13" d="M10.32,62.32H313.6V94.64H10.32Z"/></g></g><text class="cls-31" transform="translate(236.12 46.47) scale(0.35 1)">Real</text><text class="cls-31" transform="translate(346.08 46.47) scale(0.34 1)">Estate </text></g></g></svg>