<?xml version="1.0" standalone="no"?>
<!DOCTYPE svg PUBLIC "-//W3C//DTD SVG 20010904//EN"
 "http://www.w3.org/TR/2001/REC-SVG-20010904/DTD/svg10.dtd">
<svg version="1.0" xmlns="http://www.w3.org/2000/svg"
 width="300.000000pt" height="300.000000pt" viewBox="0 0 300.000000 300.000000"
 preserveAspectRatio="xMidYMid meet">
<metadata>
Created by potrace 1.10, written by Peter Selinger 2001-2011
</metadata>
<g transform="translate(0.000000,300.000000) scale(0.100000,-0.100000)"
fill="#000000" stroke="none">
<path d="M1121 1943 c-33 -43 -67 -87 -75 -98 -14 -19 -15 -17 -16 31 0 27 5
55 11 61 21 21 -2 33 -64 33 l-62 0 3 -139 4 -138 -51 -64 -51 -63 -85 -18
c-47 -9 -93 -22 -103 -27 -22 -14 -18 -13 96 3 255 38 755 55 1107 37 234 -12
472 -35 534 -51 19 -5 37 -8 39 -6 8 9 -43 28 -118 44 l-78 17 -128 159 -127
159 -156 -7 c-86 -4 -172 -10 -191 -13 -63 -11 -4 -22 127 -22 73 -1 124 -5
128 -11 4 -6 -17 -41 -47 -78 -29 -37 -66 -84 -81 -104 l-28 -38 -83 0 -84 0
-28 38 c-15 20 -76 98 -136 173 -59 75 -108 142 -108 148 0 8 59 11 198 11
198 0 199 0 222 -25 25 -27 26 -26 -45 -45 -79 -20 -75 -31 10 -25 44 3 92 8
107 11 l27 5 -47 59 -47 60 -256 0 -257 0 -61 -77z m229 -146 c80 -100 146
-184 148 -188 1 -3 -104 -9 -235 -12 -131 -4 -271 -11 -312 -17 -41 -5 -75 -9
-77 -7 -3 3 320 407 326 406 3 0 70 -82 150 -182z m-352 71 c10 -44 10 -55 -3
-75 -9 -13 -20 -21 -25 -18 -11 7 -14 128 -3 138 13 14 19 6 31 -45z m1057
-166 l107 -134 -59 8 c-32 4 -124 12 -205 18 l-147 11 92 117 c51 64 95 116
99 115 3 -1 54 -62 113 -135z"/>
<path d="M1140 1740 c0 -25 4 -30 25 -30 21 0 25 5 25 30 0 25 -4 30 -25 30
-21 0 -25 -5 -25 -30z"/>
<path d="M1210 1740 c0 -25 4 -30 25 -30 21 0 25 5 25 30 0 25 -4 30 -25 30
-21 0 -25 -5 -25 -30z"/>
<path d="M1140 1669 c0 -24 4 -29 25 -29 20 0 25 5 25 24 0 17 -7 25 -25 28
-22 5 -25 2 -25 -23z"/>
<path d="M1228 1693 c-11 -3 -18 -14 -18 -29 0 -19 5 -24 25 -24 20 0 25 5 25
24 0 28 -7 34 -32 29z"/>
<path d="M1890 1702 c0 -25 7 -31 31 -25 29 8 25 43 -6 43 -18 0 -25 -5 -25
-18z"/>
<path d="M1950 1697 c0 -16 6 -23 20 -24 15 -1 20 4 20 23 0 17 -5 24 -20 24
-14 0 -20 -7 -20 -23z"/>
<path d="M1890 1640 c0 -15 7 -20 25 -20 18 0 25 5 25 20 0 15 -7 20 -25 20
-18 0 -25 -5 -25 -20z"/>
<path d="M1950 1640 c0 -13 7 -20 20 -20 13 0 20 7 20 20 0 13 -7 20 -20 20
-13 0 -20 -7 -20 -20z"/>
<path d="M645 1290 l0 -80 30 0 c22 0 26 3 17 12 -7 7 -12 38 -12 70 0 50 3
58 19 58 10 0 22 -7 25 -16 8 -21 8 -20 -9 -38 -14 -14 -14 -18 -1 -44 16 -30
34 -42 65 -42 15 0 11 8 -16 37 -30 31 -32 38 -19 45 22 13 20 55 -3 68 -11 5
-37 10 -58 10 l-38 0 0 -80z"/>
<path d="M828 1363 c8 -3 12 -28 12 -73 0 -45 -4 -70 -12 -73 -7 -3 15 -6 50
-6 34 -1 62 3 62 8 0 5 3 18 6 28 6 15 3 14 -15 -4 -33 -34 -61 -30 -61 8 0
30 2 31 30 26 25 -6 30 -3 30 14 0 16 -3 18 -19 9 -32 -16 -41 -12 -41 20 0
25 4 30 23 30 13 0 28 -5 35 -12 9 -9 12 -7 12 10 0 20 -5 22 -62 21 -35 0
-57 -3 -50 -6z"/>
<path d="M1021 1299 c-18 -41 -38 -77 -45 -81 -6 -5 0 -8 15 -8 19 0 26 5 25
18 -2 27 54 30 61 3 4 -16 13 -21 37 -21 18 0 26 3 19 8 -7 4 -27 41 -46 81
l-33 74 -33 -74z m39 -26 c0 -7 -7 -13 -15 -13 -16 0 -19 9 -9 35 5 13 8 14
15 3 5 -7 9 -19 9 -25z"/>
<path d="M1175 1290 l0 -81 55 3 c49 3 55 6 58 26 l4 24 -21 -21 c-12 -12 -28
-21 -37 -21 -13 0 -15 12 -12 75 3 74 3 75 -22 75 -25 0 -25 -1 -25 -80z"/>
<path d="M1415 1290 l0 -81 55 3 c49 3 55 6 58 26 l4 24 -21 -21 c-31 -31 -51
-27 -51 9 0 23 5 30 19 30 11 0 22 -6 24 -12 3 -7 6 0 6 17 1 22 -2 26 -11 17
-21 -21 -38 -13 -38 18 0 25 4 30 24 30 13 0 27 -6 29 -12 3 -7 6 -3 6 10 1
20 -3 22 -51 22 l-53 0 0 -80z"/>
<path d="M1586 1349 c-19 -28 -12 -44 31 -70 20 -13 33 -28 31 -38 -5 -26 -39
-26 -60 0 l-19 24 3 -25 c3 -22 9 -25 44 -28 74 -5 86 53 19 96 -19 12 -35 26
-35 31 0 14 32 23 44 11 14 -14 26 -12 26 5 0 24 -66 20 -84 -6z"/>
<path d="M1710 1348 c0 -13 3 -18 8 -12 4 6 17 13 30 16 21 6 22 4 22 -62 0
-45 -4 -70 -12 -73 -7 -3 5 -5 27 -5 22 0 34 2 28 5 -9 3 -13 27 -13 69 0 61
1 64 24 64 13 0 27 -6 29 -12 3 -7 6 -3 6 10 1 21 -3 22 -74 22 -71 0 -75 -1
-75 -22z"/>
<path d="M1924 1290 c-35 -69 -38 -80 -22 -80 12 0 18 7 18 21 0 17 5 20 33
17 23 -2 32 -8 31 -20 -1 -14 6 -18 34 -18 30 0 33 2 20 13 -9 6 -29 42 -45
80 l-30 67 -39 -80z m42 -27 c-12 -12 -29 15 -21 34 7 17 8 16 18 -5 5 -12 7
-25 3 -29z"/>
<path d="M2067 1349 c-4 -17 -3 -19 6 -10 6 6 19 11 30 11 17 0 18 -7 15 -70
-3 -69 -3 -70 22 -70 25 0 25 1 22 75 -3 69 -2 74 15 68 10 -3 21 -11 25 -17
4 -6 8 -1 8 12 0 21 -4 22 -69 22 -62 0 -69 -2 -74 -21z"/>
<path d="M2255 1290 l0 -81 55 3 c49 3 55 6 58 26 l4 24 -21 -21 c-29 -29 -48
-26 -53 9 -4 26 -1 30 18 30 12 0 25 -6 27 -12 3 -7 6 0 6 16 1 24 -1 27 -14
16 -23 -19 -43 -6 -38 24 4 19 12 26 28 26 13 0 26 -6 28 -12 3 -7 6 -3 6 10
1 20 -3 22 -51 22 l-53 0 0 -80z"/>
</g>
</svg>
