<svg xmlns="http://www.w3.org/2000/svg" xmlns:xlink="http://www.w3.org/1999/xlink" viewBox="0 0 403.51 94.64"><defs><style>.cls-1{fill:none;}.cls-2{clip-path:url(#clip-path);}.cls-3{clip-path:url(#clip-path-2);}.cls-4{clip-path:url(#clip-path-3);}.cls-5{clip-path:url(#clip-path-4);}.cls-6{clip-path:url(#clip-path-5);}.cls-7{clip-path:url(#clip-path-6);}.cls-8{clip-path:url(#clip-path-7);}.cls-9{clip-path:url(#clip-path-8);}.cls-10{clip-path:url(#clip-path-9);}.cls-11{clip-path:url(#clip-path-10);}.cls-12{clip-path:url(#clip-path-11);}.cls-13{fill:#fff;}.cls-14{clip-path:url(#clip-path-12);}.cls-15{clip-path:url(#clip-path-13);}.cls-16{clip-path:url(#clip-path-14);}.cls-17{clip-path:url(#clip-path-15);}.cls-18{clip-path:url(#clip-path-16);}.cls-19{clip-path:url(#clip-path-17);}.cls-20{clip-path:url(#clip-path-18);}.cls-21{clip-path:url(#clip-path-19);}.cls-22{clip-path:url(#clip-path-20);}.cls-23{clip-path:url(#clip-path-21);}.cls-24{clip-path:url(#clip-path-22);}.cls-25{clip-path:url(#clip-path-23);}.cls-26{clip-path:url(#clip-path-24);}.cls-27{clip-path:url(#clip-path-25);}.cls-28{clip-path:url(#clip-path-26);}.cls-29{clip-path:url(#clip-path-27);}.cls-30{clip-path:url(#clip-path-28);}.cls-31,.cls-32,.cls-33,.cls-34{isolation:isolate;font-size:48.7px;stroke-miterlimit:10;font-family:GoudyStout, Goudy Stout;}.cls-31{stroke:#f9f9f9;}.cls-32{stroke:#fff;}.cls-33{fill:#1fff44;stroke:#000;}.cls-34{fill:#f9f9f9;stroke:#22ff5b;}</style><clipPath id="clip-path"><rect class="cls-1" x="118.22" y="3.82" width="16.83" height="42.84"/></clipPath><clipPath id="clip-path-2"><rect class="cls-1" x="207" y="19.32" width="62.19" height="45.74"/></clipPath><clipPath id="clip-path-3"><rect class="cls-1" x="229.85" y="19.32" width="78.72" height="45.74"/></clipPath><clipPath id="clip-path-4"><polygon class="cls-1" points="269.2 19.32 308.54 65.07 229.85 65.07 269.2 19.32"/></clipPath><clipPath id="clip-path-5"><rect class="cls-1" x="173.88" width="112.02" height="65.07"/></clipPath><clipPath id="clip-path-6"><polygon class="cls-1" points="229.85 0 285.81 65.07 173.88 65.07 229.85 0"/></clipPath><clipPath id="clip-path-7"><rect class="cls-1" x="98.55" width="112.09" height="65.07"/></clipPath><clipPath id="clip-path-8"><polygon class="cls-1" points="154.51 0 210.48 65.07 98.55 65.07 154.51 0"/></clipPath><clipPath id="clip-path-9"><rect class="cls-1" x="154.51" width="75.33" height="65.07"/></clipPath><clipPath id="clip-path-10"><rect class="cls-1" x="229.85" y="24.8" width="74.09" height="43.01"/></clipPath><clipPath id="clip-path-11"><polygon class="cls-1" points="266.84 24.8 303.83 67.81 229.85 67.81 266.84 24.8"/></clipPath><clipPath id="clip-path-12"><rect class="cls-1" x="209.9" y="13.02" width="60" height="8"/></clipPath><clipPath id="clip-path-13"><rect class="cls-1" x="210.71" y="16.1" width="58.34" height="5" transform="translate(-0.72 19.3) rotate(-4.6)"/></clipPath><clipPath id="clip-path-14"><polygon class="cls-1" points="210.82 20.93 268.76 13.77 269.16 18.75 210.82 20.93"/></clipPath><clipPath id="clip-path-15"><rect class="cls-1" x="104.48" y="5.46" width="104.39" height="60.6"/></clipPath><clipPath id="clip-path-16"><polygon class="cls-1" points="156.59 5.46 208.71 66.06 104.48 66.06 156.59 5.46"/></clipPath><clipPath id="clip-path-17"><rect class="cls-1" x="147.8" y="44.99" width="8.05" height="7.63"/></clipPath><clipPath id="clip-path-18"><rect class="cls-1" x="262.01" y="47.14" width="6.57" height="6.23"/></clipPath><clipPath id="clip-path-19"><rect class="cls-1" x="147.8" y="35.32" width="8.05" height="7.64"/></clipPath><clipPath id="clip-path-20"><rect class="cls-1" x="262.01" y="39.24" width="6.57" height="6.23"/></clipPath><clipPath id="clip-path-21"><rect class="cls-1" x="157.33" y="44.99" width="8.06" height="7.63"/></clipPath><clipPath id="clip-path-22"><rect class="cls-1" x="269.8" y="47.14" width="6.57" height="6.23"/></clipPath><clipPath id="clip-path-23"><rect class="cls-1" x="157.33" y="35.32" width="8.06" height="7.64"/></clipPath><clipPath id="clip-path-24"><rect class="cls-1" x="269.8" y="39.24" width="6.57" height="6.23"/></clipPath><clipPath id="clip-path-25"><rect class="cls-1" x="67.82" y="57.58" width="270.32" height="32.32"/></clipPath><clipPath id="clip-path-26"><ellipse class="cls-1" cx="202.96" cy="73.74" rx="135.14" ry="16.16"/></clipPath><clipPath id="clip-path-27"><rect class="cls-1" x="78.14" y="62.32" width="303.41" height="32.32"/></clipPath><clipPath id="clip-path-28"><ellipse class="cls-1" cx="229.79" cy="78.48" rx="151.65" ry="16.16"/></clipPath></defs><g id="Layer_2" data-name="Layer 2"><g id="Layer_1-2" data-name="Layer 1"><g class="cls-2"><path d="M118.22,3.82h16.83V46.69H118.22Z"/></g><g class="cls-3"><path d="M207,19.32h62.2V65.07H207Z"/></g><g class="cls-4"><g class="cls-5"><path d="M229.82,19.32h78.63V65.07H229.82Z"/></g></g><g class="cls-6"><g class="cls-7"><path d="M173.88,0H285.72V65.07H173.88Z"/></g></g><g class="cls-8"><g class="cls-9"><path d="M98.55,0H210.39V65.07H98.55Z"/></g></g><g class="cls-10"><path d="M154.51,0h75.24V65.07H154.51Z"/></g><g class="cls-11"><g class="cls-12"><path class="cls-13" d="M229.82,24.8h74v43h-74Z"/></g></g><g class="cls-14"><g class="cls-15"><g class="cls-16"><path class="cls-13" d="M211,23.42l-.4-5,58.13-4.67.4,5Z"/></g></g></g><g class="cls-17"><g class="cls-18"><path class="cls-13" d="M104.48,5.46H208.63v60.6H104.48Z"/></g></g><g class="cls-19"><path d="M147.82,45h8v7.64h-8Z"/></g><g class="cls-20"><path d="M262,47.14h6.57v6.23H262Z"/></g><g class="cls-21"><path d="M147.82,35.32h8V43h-8Z"/></g><g class="cls-22"><path d="M262,39.24h6.57V45.5H262Z"/></g><g class="cls-23"><path d="M157.33,45h8v7.64h-8Z"/></g><g class="cls-24"><path d="M269.8,47.14h6.56v6.23H269.8Z"/></g><g class="cls-25"><path d="M157.33,35.32h8V43h-8Z"/></g><g class="cls-26"><path d="M269.8,39.24h6.56V45.5H269.8Z"/></g><g class="cls-27"><g class="cls-28"><path d="M67.82,57.58H338.14V89.91H67.82Z"/></g></g><g class="cls-29"><g class="cls-30"><path class="cls-13" d="M78.14,62.32H381.42V94.64H78.14Z"/></g></g><text class="cls-31" transform="translate(103.58 64.7) scale(0.47 1)">Real</text><text class="cls-32" transform="translate(238.47 64.7) scale(0.46 1)">E</text><text class="cls-33" transform="translate(0.5 65.38) scale(0.46 1)">Pak</text><text class="cls-34" transform="translate(264.55 64.7) scale(0.47 1)">stat</text><text class="cls-32" transform="translate(376.73 65.39) scale(0.46 1)">E</text></g></g></svg>